<?xml version="1.0" standalone="no"?>
<!DOCTYPE svg PUBLIC "-//W3C//DTD SVG 20010904//EN"
 "http://www.w3.org/TR/2001/REC-SVG-20010904/DTD/svg10.dtd">
<svg version="1.0" xmlns="http://www.w3.org/2000/svg"
 width="1280.000000pt" height="1280.000000pt" viewBox="0 0 1280.000000 1280.000000"
 preserveAspectRatio="xMidYMid meet">
<metadata>
Created by potrace 1.15, written by Peter Selinger 2001-2017
</metadata>
<g transform="translate(0.000000,1280.000000) scale(0.100000,-0.100000)"
fill="#000000" stroke="none">
<path d="M7115 12034 c-16 -2 -73 -9 -125 -15 -391 -45 -803 -193 -1130 -407
-332 -217 -688 -566 -997 -978 -47 -63 -88 -114 -92 -114 -30 0 -347 -55 -461
-80 -760 -167 -1463 -512 -2055 -1009 -128 -107 -371 -347 -482 -476 -183
-211 -425 -552 -557 -784 -27 -46 -86 -161 -132 -254 -407 -828 -557 -1765
-433 -2715 131 -1012 531 -1921 1194 -2715 606 -726 1464 -1234 2425 -1438
364 -76 586 -99 1035 -106 397 -6 596 5 890 48 1104 161 2008 690 2655 1554
569 759 874 1609 985 2740 32 332 36 423 42 923 l5 513 122 92 c569 428 1045
872 1316 1228 358 468 607 1028 686 1539 26 167 24 450 -4 585 -82 398 -301
641 -632 701 -477 86 -964 -238 -1444 -961 -257 -386 -434 -754 -561 -1160
-136 -436 -264 -1058 -396 -1918 -18 -120 -36 -222 -39 -227 -8 -14 -260 -100
-260 -89 0 4 10 79 22 166 28 209 30 574 4 768 -103 768 -426 1484 -910 2016
-337 371 -913 726 -1461 902 -315 101 -579 145 -932 154 -128 3 -233 9 -233
12 0 3 50 74 112 156 143 192 380 432 558 564 355 264 753 430 1195 497 171
26 599 26 770 0 632 -96 1104 -368 1703 -980 213 -218 204 -215 316 -94 42 45
76 84 76 87 0 14 -264 290 -375 392 -546 505 -1049 762 -1695 865 -76 12 -184
17 -390 19 -157 2 -298 1 -315 -1z m4245 -1450 c59 -17 123 -64 166 -121 141
-185 138 -621 -7 -1134 -124 -441 -451 -1066 -755 -1443 -150 -186 -373 -396
-724 -680 l-145 -117 -3 44 c-4 61 44 697 74 977 124 1159 339 1801 747 2227
225 235 428 312 647 247z m-5795 -364 c872 -81 1651 -513 2187 -1213 324 -424
518 -879 600 -1402 19 -120 22 -182 23 -440 0 -198 -5 -332 -13 -395 -27 -194
-53 -345 -60 -352 -4 -4 -84 -17 -177 -30 -223 -29 -711 -32 -925 -5 -706 90
-1259 345 -1723 797 -77 74 -175 178 -219 230 -294 352 -472 750 -545 1220
-22 143 -25 608 -5 735 27 170 56 294 92 405 37 111 132 345 171 423 l19 37
233 0 c127 0 282 -5 342 -10z m-980 -77 c-66 -170 -141 -444 -174 -633 -84
-480 -39 -1002 124 -1446 93 -253 288 -591 475 -823 260 -322 615 -603 1019
-805 371 -186 748 -296 1196 -348 167 -19 614 -16 818 6 93 10 171 15 174 12
7 -7 -77 -211 -157 -381 -113 -240 -309 -562 -467 -768 -96 -124 -260 -302
-373 -405 -466 -423 -983 -669 -1550 -738 -191 -23 -541 -16 -692 15 -411 83
-775 275 -1082 571 -338 326 -550 717 -639 1180 -18 98 -22 150 -22 350 0 217
2 246 29 385 16 83 46 213 68 290 38 136 39 141 23 171 -15 28 -28 35 -122 62
l-104 30 -11 -27 c-68 -173 -130 -422 -155 -616 -19 -153 -13 -520 12 -675 91
-572 387 -1104 814 -1462 609 -510 1431 -709 2287 -552 270 49 518 134 794
271 510 253 918 617 1205 1073 86 138 257 480 324 650 47 119 182 516 207 609
5 19 16 38 24 42 21 11 251 81 255 77 7 -7 -110 -657 -160 -889 -52 -237 -138
-574 -220 -858 -271 -942 -567 -1555 -997 -2066 -105 -125 -363 -374 -490
-473 -480 -373 -983 -585 -1588 -669 -159 -22 -649 -25 -815 -5 -537 66 -1019
231 -1488 511 -716 427 -1280 1054 -1678 1864 -232 473 -373 965 -436 1519
-24 215 -24 751 0 966 64 564 204 1046 451 1557 113 233 187 363 321 565 615
928 1564 1595 2625 1845 172 40 185 41 175 18z"/>
</g>
</svg>
